<mxfile modified="2023-10-30T10:32:41.083Z" host="app.diagrams.net" agent="Mozilla/5.0 (Macintosh; Intel Mac OS X 10_15_7) AppleWebKit/537.36 (KHTML, like Gecko) Chrome/118.0.0.0 Safari/537.36 Edg/118.0.2088.76" etag="grZ9Fr8_3UEidf64EfwH" version="22.0.8" type="github">
  <diagram id="Ht1M8jgEwFfnCIfOTk4-" name="Page-1">
    <mxGraphModel dx="1434" dy="828" grid="1" gridSize="10" guides="1" tooltips="1" connect="1" arrows="1" fold="1" page="1" pageScale="1" pageWidth="1169" pageHeight="827" math="0" shadow="0">
      <root>
        <mxCell id="0" />
        <mxCell id="1" parent="0" />
        <mxCell id="UEzPUAAOIrF-is8g5C7q-74" value="" style="points=[[0,0],[0.25,0],[0.5,0],[0.75,0],[1,0],[1,0.25],[1,0.5],[1,0.75],[1,1],[0.75,1],[0.5,1],[0.25,1],[0,1],[0,0.75],[0,0.5],[0,0.25]];outlineConnect=0;gradientColor=none;html=1;whiteSpace=wrap;fontSize=12;fontStyle=0;shape=mxgraph.aws4.group;grIcon=mxgraph.aws4.group_aws_cloud_alt;strokeColor=#232F3E;fillColor=none;verticalAlign=top;align=left;spacingLeft=30;fontColor=#232F3E;dashed=0;labelBackgroundColor=#ffffff;container=1;pointerEvents=0;collapsible=0;recursiveResize=0;" parent="1" vertex="1">
          <mxGeometry x="17" y="80" width="1136" height="738" as="geometry" />
        </mxCell>
        <mxCell id="bOCi2ubxmbnxknkTj1Zq-160" value="CodeBuild" style="text;strokeColor=none;align=center;fillColor=none;html=1;verticalAlign=middle;whiteSpace=wrap;rounded=0;" parent="UEzPUAAOIrF-is8g5C7q-74" vertex="1">
          <mxGeometry x="175" y="393.99999999999994" width="55" height="30" as="geometry" />
        </mxCell>
        <mxCell id="bOCi2ubxmbnxknkTj1Zq-11" value="VPC" style="points=[[0,0],[0.25,0],[0.5,0],[0.75,0],[1,0],[1,0.25],[1,0.5],[1,0.75],[1,1],[0.75,1],[0.5,1],[0.25,1],[0,1],[0,0.75],[0,0.5],[0,0.25]];outlineConnect=0;gradientColor=none;html=1;whiteSpace=wrap;fontSize=12;fontStyle=0;container=1;pointerEvents=0;collapsible=0;recursiveResize=0;shape=mxgraph.aws4.group;grIcon=mxgraph.aws4.group_vpc;strokeColor=#248814;fillColor=none;verticalAlign=top;align=left;spacingLeft=30;fontColor=#AAB7B8;dashed=0;" parent="UEzPUAAOIrF-is8g5C7q-74" vertex="1">
          <mxGeometry x="430" y="46.95" width="421" height="573.05" as="geometry" />
        </mxCell>
        <mxCell id="bOCi2ubxmbnxknkTj1Zq-4" value="" style="sketch=0;outlineConnect=0;fontColor=#232F3E;gradientColor=none;fillColor=#4D27AA;strokeColor=none;dashed=0;verticalLabelPosition=bottom;verticalAlign=top;align=center;html=1;fontSize=12;fontStyle=0;aspect=fixed;pointerEvents=1;shape=mxgraph.aws4.application_load_balancer;direction=east;" parent="bOCi2ubxmbnxknkTj1Zq-11" vertex="1">
          <mxGeometry x="187.5" width="50" height="50" as="geometry" />
        </mxCell>
        <mxCell id="bOCi2ubxmbnxknkTj1Zq-16" value="Availability Zone" style="fillColor=none;strokeColor=#147EBA;dashed=1;verticalAlign=top;fontStyle=0;fontColor=#147EBA;whiteSpace=wrap;html=1;" parent="bOCi2ubxmbnxknkTj1Zq-11" vertex="1">
          <mxGeometry x="20" y="50" width="160" height="510" as="geometry" />
        </mxCell>
        <mxCell id="bOCi2ubxmbnxknkTj1Zq-17" value="Availability Zone" style="fillColor=none;strokeColor=#147EBA;dashed=1;verticalAlign=top;fontStyle=0;fontColor=#147EBA;whiteSpace=wrap;html=1;" parent="bOCi2ubxmbnxknkTj1Zq-11" vertex="1">
          <mxGeometry x="245" y="50" width="155" height="510" as="geometry" />
        </mxCell>
        <mxCell id="bOCi2ubxmbnxknkTj1Zq-24" value="Public subnet" style="points=[[0,0],[0.25,0],[0.5,0],[0.75,0],[1,0],[1,0.25],[1,0.5],[1,0.75],[1,1],[0.75,1],[0.5,1],[0.25,1],[0,1],[0,0.75],[0,0.5],[0,0.25]];outlineConnect=0;gradientColor=none;html=1;whiteSpace=wrap;fontSize=12;fontStyle=0;container=1;pointerEvents=0;collapsible=0;recursiveResize=0;shape=mxgraph.aws4.group;grIcon=mxgraph.aws4.group_security_group;grStroke=0;strokeColor=#248814;fillColor=#E9F3E6;verticalAlign=top;align=left;spacingLeft=30;fontColor=#248814;dashed=0;" parent="bOCi2ubxmbnxknkTj1Zq-11" vertex="1">
          <mxGeometry x="35" y="83.05" width="130" height="110" as="geometry" />
        </mxCell>
        <mxCell id="bOCi2ubxmbnxknkTj1Zq-50" value="" style="sketch=0;outlineConnect=0;fontColor=#232F3E;gradientColor=none;fillColor=#4D27AA;strokeColor=none;dashed=0;verticalLabelPosition=bottom;verticalAlign=top;align=center;html=1;fontSize=12;fontStyle=0;aspect=fixed;pointerEvents=1;shape=mxgraph.aws4.nat_gateway;" parent="bOCi2ubxmbnxknkTj1Zq-24" vertex="1">
          <mxGeometry x="45" y="35" width="40" height="40" as="geometry" />
        </mxCell>
        <mxCell id="bOCi2ubxmbnxknkTj1Zq-149" value="NAT Gateway" style="text;strokeColor=none;align=center;fillColor=none;html=1;verticalAlign=middle;whiteSpace=wrap;rounded=0;" parent="bOCi2ubxmbnxknkTj1Zq-24" vertex="1">
          <mxGeometry x="22.5" y="80" width="85" height="30" as="geometry" />
        </mxCell>
        <mxCell id="bOCi2ubxmbnxknkTj1Zq-27" value="Public subnet" style="points=[[0,0],[0.25,0],[0.5,0],[0.75,0],[1,0],[1,0.25],[1,0.5],[1,0.75],[1,1],[0.75,1],[0.5,1],[0.25,1],[0,1],[0,0.75],[0,0.5],[0,0.25]];outlineConnect=0;gradientColor=none;html=1;whiteSpace=wrap;fontSize=12;fontStyle=0;container=1;pointerEvents=0;collapsible=0;recursiveResize=0;shape=mxgraph.aws4.group;grIcon=mxgraph.aws4.group_security_group;grStroke=0;strokeColor=#248814;fillColor=#E9F3E6;verticalAlign=top;align=left;spacingLeft=30;fontColor=#248814;dashed=0;" parent="bOCi2ubxmbnxknkTj1Zq-11" vertex="1">
          <mxGeometry x="255" y="83.05" width="130" height="110" as="geometry" />
        </mxCell>
        <mxCell id="bOCi2ubxmbnxknkTj1Zq-28" value="Private subnet" style="points=[[0,0],[0.25,0],[0.5,0],[0.75,0],[1,0],[1,0.25],[1,0.5],[1,0.75],[1,1],[0.75,1],[0.5,1],[0.25,1],[0,1],[0,0.75],[0,0.5],[0,0.25]];outlineConnect=0;gradientColor=none;html=1;whiteSpace=wrap;fontSize=12;fontStyle=0;container=1;pointerEvents=0;collapsible=0;recursiveResize=0;shape=mxgraph.aws4.group;grIcon=mxgraph.aws4.group_security_group;grStroke=0;strokeColor=#147EBA;fillColor=#E6F2F8;verticalAlign=top;align=left;spacingLeft=30;fontColor=#147EBA;dashed=0;" parent="bOCi2ubxmbnxknkTj1Zq-11" vertex="1">
          <mxGeometry x="257.5" y="215" width="130" height="180" as="geometry" />
        </mxCell>
        <mxCell id="bOCi2ubxmbnxknkTj1Zq-125" value="App Server&lt;br&gt;" style="text;strokeColor=none;align=center;fillColor=none;html=1;verticalAlign=middle;whiteSpace=wrap;rounded=0;" parent="bOCi2ubxmbnxknkTj1Zq-28" vertex="1">
          <mxGeometry x="10" y="148.05" width="55" height="30" as="geometry" />
        </mxCell>
        <mxCell id="bOCi2ubxmbnxknkTj1Zq-124" value="EKS Containers" style="text;strokeColor=none;align=center;fillColor=none;html=1;verticalAlign=middle;whiteSpace=wrap;rounded=0;" parent="bOCi2ubxmbnxknkTj1Zq-28" vertex="1">
          <mxGeometry x="17.5" y="62.05000000000001" width="110" height="30" as="geometry" />
        </mxCell>
        <mxCell id="bOCi2ubxmbnxknkTj1Zq-100" value="" style="sketch=0;points=[[0,0,0],[0.25,0,0],[0.5,0,0],[0.75,0,0],[1,0,0],[0,1,0],[0.25,1,0],[0.5,1,0],[0.75,1,0],[1,1,0],[0,0.25,0],[0,0.5,0],[0,0.75,0],[1,0.25,0],[1,0.5,0],[1,0.75,0]];outlineConnect=0;fontColor=#232F3E;gradientColor=#F78E04;gradientDirection=north;fillColor=#D05C17;strokeColor=#ffffff;dashed=0;verticalLabelPosition=bottom;verticalAlign=top;align=center;html=1;fontSize=12;fontStyle=0;aspect=fixed;shape=mxgraph.aws4.resourceIcon;resIcon=mxgraph.aws4.ec2;" parent="bOCi2ubxmbnxknkTj1Zq-28" vertex="1">
          <mxGeometry x="17.5" y="89.05000000000001" width="40" height="40" as="geometry" />
        </mxCell>
        <mxCell id="bOCi2ubxmbnxknkTj1Zq-65" value="" style="outlineConnect=0;dashed=0;verticalLabelPosition=bottom;verticalAlign=top;align=center;html=1;shape=mxgraph.aws3.lambda_function;fillColor=#F58534;gradientColor=none;" parent="bOCi2ubxmbnxknkTj1Zq-28" vertex="1">
          <mxGeometry x="72.5" y="89.05000000000001" width="40" height="40" as="geometry" />
        </mxCell>
        <mxCell id="bOCi2ubxmbnxknkTj1Zq-214" value="" style="outlineConnect=0;dashed=0;verticalLabelPosition=bottom;verticalAlign=top;align=center;html=1;shape=mxgraph.aws3.ec2_compute_container;fillColor=#F58534;gradientColor=none;" parent="bOCi2ubxmbnxknkTj1Zq-28" vertex="1">
          <mxGeometry x="72.5" y="28.05000000000001" width="50" height="34.5" as="geometry" />
        </mxCell>
        <mxCell id="bOCi2ubxmbnxknkTj1Zq-300" value="" style="edgeStyle=orthogonalEdgeStyle;rounded=0;orthogonalLoop=1;jettySize=auto;html=1;strokeColor=#ff0033;dashed=1;" parent="bOCi2ubxmbnxknkTj1Zq-28" source="bOCi2ubxmbnxknkTj1Zq-69" edge="1">
          <mxGeometry relative="1" as="geometry">
            <mxPoint x="53.5" y="128.05" as="targetPoint" />
            <Array as="points">
              <mxPoint x="173" y="118" />
              <mxPoint x="173" y="178" />
              <mxPoint x="54" y="178" />
            </Array>
          </mxGeometry>
        </mxCell>
        <mxCell id="bOCi2ubxmbnxknkTj1Zq-126" value="Lambda Function" style="text;strokeColor=none;align=center;fillColor=none;html=1;verticalAlign=middle;whiteSpace=wrap;rounded=0;" parent="bOCi2ubxmbnxknkTj1Zq-28" vertex="1">
          <mxGeometry x="65" y="148.05" width="55" height="30" as="geometry" />
        </mxCell>
        <mxCell id="bOCi2ubxmbnxknkTj1Zq-31" value="" style="sketch=0;points=[[0,0,0],[0.25,0,0],[0.5,0,0],[0.75,0,0],[1,0,0],[0,1,0],[0.25,1,0],[0.5,1,0],[0.75,1,0],[1,1,0],[0,0.25,0],[0,0.5,0],[0,0.75,0],[1,0.25,0],[1,0.5,0],[1,0.75,0]];outlineConnect=0;fontColor=#232F3E;gradientColor=#F78E04;gradientDirection=north;fillColor=#D05C17;strokeColor=#ffffff;dashed=0;verticalLabelPosition=bottom;verticalAlign=top;align=center;html=1;fontSize=12;fontStyle=0;aspect=fixed;shape=mxgraph.aws4.resourceIcon;resIcon=mxgraph.aws4.ecs;" parent="bOCi2ubxmbnxknkTj1Zq-11" vertex="1">
          <mxGeometry x="190" y="215" width="40" height="40" as="geometry" />
        </mxCell>
        <mxCell id="bOCi2ubxmbnxknkTj1Zq-32" value="" style="outlineConnect=0;dashed=0;verticalLabelPosition=bottom;verticalAlign=top;align=center;html=1;shape=mxgraph.aws3.ec2_compute_container;fillColor=#F58534;gradientColor=none;" parent="bOCi2ubxmbnxknkTj1Zq-11" vertex="1">
          <mxGeometry x="60" y="340" width="60" height="34.5" as="geometry" />
        </mxCell>
        <mxCell id="bOCi2ubxmbnxknkTj1Zq-52" value="Isolated Subnet&lt;br&gt;" style="points=[[0,0],[0.25,0],[0.5,0],[0.75,0],[1,0],[1,0.25],[1,0.5],[1,0.75],[1,1],[0.75,1],[0.5,1],[0.25,1],[0,1],[0,0.75],[0,0.5],[0,0.25]];outlineConnect=0;gradientColor=none;html=1;whiteSpace=wrap;fontSize=12;fontStyle=0;container=1;pointerEvents=0;collapsible=0;recursiveResize=0;shape=mxgraph.aws4.group;grIcon=mxgraph.aws4.group_security_group;grStroke=0;strokeColor=#147EBA;fillColor=#E6F2F8;verticalAlign=top;align=left;spacingLeft=30;fontColor=#147EBA;dashed=0;" parent="bOCi2ubxmbnxknkTj1Zq-11" vertex="1">
          <mxGeometry x="35" y="413.05" width="130" height="130" as="geometry" />
        </mxCell>
        <mxCell id="bOCi2ubxmbnxknkTj1Zq-117" value="" style="sketch=0;points=[[0,0,0],[0.25,0,0],[0.5,0,0],[0.75,0,0],[1,0,0],[0,1,0],[0.25,1,0],[0.5,1,0],[0.75,1,0],[1,1,0],[0,0.25,0],[0,0.5,0],[0,0.75,0],[1,0.25,0],[1,0.5,0],[1,0.75,0]];outlineConnect=0;fontColor=#232F3E;gradientColor=#4D72F3;gradientDirection=north;fillColor=#3334B9;strokeColor=#ffffff;dashed=0;verticalLabelPosition=bottom;verticalAlign=top;align=center;html=1;fontSize=12;fontStyle=0;aspect=fixed;shape=mxgraph.aws4.resourceIcon;resIcon=mxgraph.aws4.rds;" parent="bOCi2ubxmbnxknkTj1Zq-52" vertex="1">
          <mxGeometry x="45" y="29.999999999999954" width="40" height="40" as="geometry" />
        </mxCell>
        <mxCell id="bOCi2ubxmbnxknkTj1Zq-56" value="Private subnet" style="points=[[0,0],[0.25,0],[0.5,0],[0.75,0],[1,0],[1,0.25],[1,0.5],[1,0.75],[1,1],[0.75,1],[0.5,1],[0.25,1],[0,1],[0,0.75],[0,0.5],[0,0.25]];outlineConnect=0;gradientColor=none;html=1;whiteSpace=wrap;fontSize=12;fontStyle=0;container=1;pointerEvents=0;collapsible=0;recursiveResize=0;shape=mxgraph.aws4.group;grIcon=mxgraph.aws4.group_security_group;grStroke=0;strokeColor=#147EBA;fillColor=#E6F2F8;verticalAlign=top;align=left;spacingLeft=30;fontColor=#147EBA;dashed=0;" parent="bOCi2ubxmbnxknkTj1Zq-11" vertex="1">
          <mxGeometry x="35" y="215" width="135" height="180" as="geometry" />
        </mxCell>
        <mxCell id="bOCi2ubxmbnxknkTj1Zq-98" value="" style="sketch=0;points=[[0,0,0],[0.25,0,0],[0.5,0,0],[0.75,0,0],[1,0,0],[0,1,0],[0.25,1,0],[0.5,1,0],[0.75,1,0],[1,1,0],[0,0.25,0],[0,0.5,0],[0,0.75,0],[1,0.25,0],[1,0.5,0],[1,0.75,0]];outlineConnect=0;fontColor=#232F3E;gradientColor=#F78E04;gradientDirection=north;fillColor=#D05C17;strokeColor=#ffffff;dashed=0;verticalLabelPosition=bottom;verticalAlign=top;align=center;html=1;fontSize=12;fontStyle=0;aspect=fixed;shape=mxgraph.aws4.resourceIcon;resIcon=mxgraph.aws4.ec2;" parent="bOCi2ubxmbnxknkTj1Zq-56" vertex="1">
          <mxGeometry x="15" y="92.04999999999993" width="40" height="40" as="geometry" />
        </mxCell>
        <mxCell id="bOCi2ubxmbnxknkTj1Zq-213" value="" style="outlineConnect=0;dashed=0;verticalLabelPosition=bottom;verticalAlign=top;align=center;html=1;shape=mxgraph.aws3.ec2_compute_container;fillColor=#F58534;gradientColor=none;" parent="bOCi2ubxmbnxknkTj1Zq-56" vertex="1">
          <mxGeometry x="75.51999999999998" y="27.55000000000001" width="50" height="34.5" as="geometry" />
        </mxCell>
        <mxCell id="bOCi2ubxmbnxknkTj1Zq-58" value="Isolated Subnet&lt;br&gt;" style="points=[[0,0],[0.25,0],[0.5,0],[0.75,0],[1,0],[1,0.25],[1,0.5],[1,0.75],[1,1],[0.75,1],[0.5,1],[0.25,1],[0,1],[0,0.75],[0,0.5],[0,0.25]];outlineConnect=0;gradientColor=none;html=1;whiteSpace=wrap;fontSize=12;fontStyle=0;container=1;pointerEvents=0;collapsible=0;recursiveResize=0;shape=mxgraph.aws4.group;grIcon=mxgraph.aws4.group_security_group;grStroke=0;strokeColor=#147EBA;fillColor=#E6F2F8;verticalAlign=top;align=left;spacingLeft=30;fontColor=#147EBA;dashed=0;" parent="bOCi2ubxmbnxknkTj1Zq-11" vertex="1">
          <mxGeometry x="260" y="413.05" width="130" height="130" as="geometry" />
        </mxCell>
        <mxCell id="bOCi2ubxmbnxknkTj1Zq-118" value="" style="sketch=0;points=[[0,0,0],[0.25,0,0],[0.5,0,0],[0.75,0,0],[1,0,0],[0,1,0],[0.25,1,0],[0.5,1,0],[0.75,1,0],[1,1,0],[0,0.25,0],[0,0.5,0],[0,0.75,0],[1,0.25,0],[1,0.5,0],[1,0.75,0]];outlineConnect=0;fontColor=#232F3E;gradientColor=#4D72F3;gradientDirection=north;fillColor=#3334B9;strokeColor=#ffffff;dashed=0;verticalLabelPosition=bottom;verticalAlign=top;align=center;html=1;fontSize=12;fontStyle=0;aspect=fixed;shape=mxgraph.aws4.resourceIcon;resIcon=mxgraph.aws4.rds;" parent="bOCi2ubxmbnxknkTj1Zq-58" vertex="1">
          <mxGeometry x="50.25" y="30.999999999999954" width="40" height="40" as="geometry" />
        </mxCell>
        <mxCell id="bOCi2ubxmbnxknkTj1Zq-122" value="Primary Database Instance" style="text;strokeColor=none;align=center;fillColor=none;html=1;verticalAlign=middle;whiteSpace=wrap;rounded=0;" parent="bOCi2ubxmbnxknkTj1Zq-58" vertex="1">
          <mxGeometry x="24" y="90" width="92.5" height="30" as="geometry" />
        </mxCell>
        <mxCell id="bOCi2ubxmbnxknkTj1Zq-260" value="" style="edgeStyle=orthogonalEdgeStyle;rounded=0;orthogonalLoop=1;jettySize=auto;html=1;entryX=1;entryY=0.25;entryDx=0;entryDy=0;entryPerimeter=0;exitX=1;exitY=0.5;exitDx=0;exitDy=0;exitPerimeter=0;fillColor=#f0a30a;strokeColor=#BD7000;" parent="bOCi2ubxmbnxknkTj1Zq-58" source="bOCi2ubxmbnxknkTj1Zq-65" edge="1">
          <mxGeometry relative="1" as="geometry">
            <mxPoint x="90.25" y="-104.91000000000003" as="sourcePoint" />
            <mxPoint x="90.5" y="45.089999999999975" as="targetPoint" />
            <Array as="points">
              <mxPoint x="110" y="-80" />
              <mxPoint x="130" y="-80" />
              <mxPoint x="130" y="44" />
              <mxPoint x="100" y="44" />
              <mxPoint x="100" y="45" />
            </Array>
          </mxGeometry>
        </mxCell>
        <mxCell id="bOCi2ubxmbnxknkTj1Zq-61" value="" style="sketch=0;outlineConnect=0;fontColor=#232F3E;gradientColor=none;fillColor=#4D27AA;strokeColor=none;dashed=0;verticalLabelPosition=bottom;verticalAlign=top;align=center;html=1;fontSize=12;fontStyle=0;aspect=fixed;pointerEvents=1;shape=mxgraph.aws4.endpoints;" parent="bOCi2ubxmbnxknkTj1Zq-11" vertex="1">
          <mxGeometry x="80" y="553.05" width="40" height="40" as="geometry" />
        </mxCell>
        <mxCell id="bOCi2ubxmbnxknkTj1Zq-94" value="" style="sketch=0;outlineConnect=0;fontColor=#232F3E;gradientColor=none;fillColor=#BF0816;strokeColor=none;dashed=0;verticalLabelPosition=bottom;verticalAlign=top;align=center;html=1;fontSize=12;fontStyle=0;aspect=fixed;pointerEvents=1;shape=mxgraph.aws4.managed_ms_ad;" parent="bOCi2ubxmbnxknkTj1Zq-11" vertex="1">
          <mxGeometry x="120" y="307.05" width="40.52" height="40" as="geometry" />
        </mxCell>
        <mxCell id="bOCi2ubxmbnxknkTj1Zq-45" value="" style="outlineConnect=0;dashed=0;verticalLabelPosition=bottom;verticalAlign=top;align=center;html=1;shape=mxgraph.aws3.ec2_compute_container;fillColor=#F58534;gradientColor=none;" parent="bOCi2ubxmbnxknkTj1Zq-11" vertex="1">
          <mxGeometry x="270" y="242.55" width="50" height="34.5" as="geometry" />
        </mxCell>
        <mxCell id="bOCi2ubxmbnxknkTj1Zq-51" value="" style="sketch=0;outlineConnect=0;fontColor=#232F3E;gradientColor=none;fillColor=#4D27AA;strokeColor=none;dashed=0;verticalLabelPosition=bottom;verticalAlign=top;align=center;html=1;fontSize=12;fontStyle=0;aspect=fixed;pointerEvents=1;shape=mxgraph.aws4.nat_gateway;" parent="bOCi2ubxmbnxknkTj1Zq-11" vertex="1">
          <mxGeometry x="260" y="118.05000000000001" width="40" height="40" as="geometry" />
        </mxCell>
        <mxCell id="bOCi2ubxmbnxknkTj1Zq-116" value="" style="edgeStyle=orthogonalEdgeStyle;html=1;endArrow=block;elbow=vertical;startArrow=none;endFill=1;strokeColor=#545B64;rounded=0;exitX=0.6;exitY=1.061;exitDx=0;exitDy=0;exitPerimeter=0;" parent="bOCi2ubxmbnxknkTj1Zq-11" edge="1">
          <mxGeometry width="100" relative="1" as="geometry">
            <mxPoint x="212.12" y="64.99936251448833" as="sourcePoint" />
            <mxPoint x="212" y="215" as="targetPoint" />
            <Array as="points">
              <mxPoint x="212.02" y="213" />
            </Array>
          </mxGeometry>
        </mxCell>
        <mxCell id="bOCi2ubxmbnxknkTj1Zq-120" value="AWS Managed Microsoft AD" style="text;strokeColor=none;align=center;fillColor=none;html=1;verticalAlign=middle;whiteSpace=wrap;rounded=0;" parent="bOCi2ubxmbnxknkTj1Zq-11" vertex="1">
          <mxGeometry x="100" y="333.5" width="70" height="81" as="geometry" />
        </mxCell>
        <mxCell id="bOCi2ubxmbnxknkTj1Zq-131" value="" style="endArrow=classic;html=1;rounded=0;" parent="bOCi2ubxmbnxknkTj1Zq-11" edge="1">
          <mxGeometry relative="1" as="geometry">
            <mxPoint x="270" y="523.05" as="sourcePoint" />
            <mxPoint x="145" y="523.05" as="targetPoint" />
          </mxGeometry>
        </mxCell>
        <mxCell id="bOCi2ubxmbnxknkTj1Zq-132" value="Synchronous Replication&lt;br&gt;" style="edgeLabel;resizable=0;html=1;align=center;verticalAlign=middle;" parent="bOCi2ubxmbnxknkTj1Zq-131" connectable="0" vertex="1">
          <mxGeometry relative="1" as="geometry">
            <mxPoint x="-3" y="-11" as="offset" />
          </mxGeometry>
        </mxCell>
        <mxCell id="bOCi2ubxmbnxknkTj1Zq-337" value="" style="edgeStyle=orthogonalEdgeStyle;rounded=0;orthogonalLoop=1;jettySize=auto;html=1;entryX=0;entryY=0.75;entryDx=0;entryDy=0;entryPerimeter=0;exitX=0.5;exitY=0;exitDx=0;exitDy=0;exitPerimeter=0;fillColor=#ffff88;strokeColor=#6767d5;" parent="bOCi2ubxmbnxknkTj1Zq-11" source="bOCi2ubxmbnxknkTj1Zq-32" target="bOCi2ubxmbnxknkTj1Zq-118" edge="1">
          <mxGeometry relative="1" as="geometry">
            <mxPoint x="290" y="453.05" as="targetPoint" />
            <Array as="points">
              <mxPoint x="90" y="413" />
              <mxPoint x="250" y="413" />
              <mxPoint x="250" y="474" />
            </Array>
          </mxGeometry>
        </mxCell>
        <mxCell id="bOCi2ubxmbnxknkTj1Zq-130" value="App Server&lt;br&gt;" style="text;strokeColor=none;align=center;fillColor=none;html=1;verticalAlign=middle;whiteSpace=wrap;rounded=0;" parent="bOCi2ubxmbnxknkTj1Zq-11" vertex="1">
          <mxGeometry x="39" y="358.99999999999994" width="55" height="30" as="geometry" />
        </mxCell>
        <mxCell id="bOCi2ubxmbnxknkTj1Zq-195" value="" style="edgeStyle=orthogonalEdgeStyle;rounded=0;orthogonalLoop=1;jettySize=auto;html=1;dashed=1;" parent="bOCi2ubxmbnxknkTj1Zq-11" edge="1">
          <mxGeometry relative="1" as="geometry">
            <mxPoint x="40" y="263.05" as="sourcePoint" />
            <mxPoint x="270" y="268.05" as="targetPoint" />
            <Array as="points">
              <mxPoint x="40" y="283" />
              <mxPoint x="260" y="283" />
              <mxPoint x="260" y="268" />
            </Array>
          </mxGeometry>
        </mxCell>
        <mxCell id="bOCi2ubxmbnxknkTj1Zq-57" value="" style="outlineConnect=0;dashed=0;verticalLabelPosition=bottom;verticalAlign=top;align=center;html=1;shape=mxgraph.aws3.ec2_compute_container;fillColor=#F58534;gradientColor=none;" parent="bOCi2ubxmbnxknkTj1Zq-11" vertex="1">
          <mxGeometry x="50" y="242.55" width="50" height="34.5" as="geometry" />
        </mxCell>
        <mxCell id="bOCi2ubxmbnxknkTj1Zq-123" value="EKS Containers" style="text;strokeColor=none;align=center;fillColor=none;html=1;verticalAlign=middle;whiteSpace=wrap;rounded=0;" parent="bOCi2ubxmbnxknkTj1Zq-11" vertex="1">
          <mxGeometry x="50.52" y="277.05" width="110" height="30" as="geometry" />
        </mxCell>
        <mxCell id="bOCi2ubxmbnxknkTj1Zq-174" style="edgeStyle=orthogonalEdgeStyle;rounded=0;orthogonalLoop=1;jettySize=auto;html=1;exitX=0.5;exitY=1;exitDx=0;exitDy=0;" parent="bOCi2ubxmbnxknkTj1Zq-11" source="bOCi2ubxmbnxknkTj1Zq-130" target="bOCi2ubxmbnxknkTj1Zq-130" edge="1">
          <mxGeometry relative="1" as="geometry" />
        </mxCell>
        <mxCell id="bOCi2ubxmbnxknkTj1Zq-192" value="" style="edgeStyle=none;orthogonalLoop=1;jettySize=auto;html=1;rounded=0;dashed=1;" parent="bOCi2ubxmbnxknkTj1Zq-11" edge="1">
          <mxGeometry width="100" relative="1" as="geometry">
            <mxPoint x="-20" y="323.05" as="sourcePoint" />
            <mxPoint x="50" y="263.05" as="targetPoint" />
            <Array as="points">
              <mxPoint x="-20" y="263.05" />
            </Array>
          </mxGeometry>
        </mxCell>
        <mxCell id="bOCi2ubxmbnxknkTj1Zq-200" value="" style="endArrow=classic;html=1;rounded=0;entryX=0.855;entryY=0.855;entryDx=0;entryDy=0;entryPerimeter=0;dashed=1;" parent="bOCi2ubxmbnxknkTj1Zq-11" target="bOCi2ubxmbnxknkTj1Zq-65" edge="1">
          <mxGeometry width="50" height="50" relative="1" as="geometry">
            <mxPoint x="-40" y="333.05" as="sourcePoint" />
            <mxPoint x="10" y="383.05" as="targetPoint" />
            <Array as="points">
              <mxPoint x="-40" y="403.05" />
              <mxPoint x="380" y="403.05" />
              <mxPoint x="380" y="338.05" />
            </Array>
          </mxGeometry>
        </mxCell>
        <mxCell id="bOCi2ubxmbnxknkTj1Zq-198" value="" style="edgeStyle=none;orthogonalLoop=1;jettySize=auto;html=1;rounded=0;dashed=1;" parent="bOCi2ubxmbnxknkTj1Zq-11" edge="1">
          <mxGeometry width="100" relative="1" as="geometry">
            <mxPoint x="30" y="333.05" as="sourcePoint" />
            <mxPoint x="275" y="343.05" as="targetPoint" />
            <Array as="points">
              <mxPoint x="30" y="393.05" />
              <mxPoint x="140" y="393.05" />
              <mxPoint x="275" y="393.05" />
            </Array>
          </mxGeometry>
        </mxCell>
        <mxCell id="bOCi2ubxmbnxknkTj1Zq-127" value="Standby RDS Instance" style="text;strokeColor=none;align=center;fillColor=none;html=1;verticalAlign=middle;whiteSpace=wrap;rounded=0;" parent="bOCi2ubxmbnxknkTj1Zq-11" vertex="1">
          <mxGeometry x="40" y="503.05" width="100" height="30" as="geometry" />
        </mxCell>
        <mxCell id="bOCi2ubxmbnxknkTj1Zq-215" value="EKS" style="text;strokeColor=none;align=center;fillColor=none;html=1;verticalAlign=middle;whiteSpace=wrap;rounded=0;" parent="bOCi2ubxmbnxknkTj1Zq-11" vertex="1">
          <mxGeometry x="182.5" y="247.04999999999995" width="55" height="30" as="geometry" />
        </mxCell>
        <mxCell id="bOCi2ubxmbnxknkTj1Zq-246" value="ALB" style="text;strokeColor=none;align=center;fillColor=none;html=1;verticalAlign=middle;whiteSpace=wrap;rounded=0;" parent="bOCi2ubxmbnxknkTj1Zq-11" vertex="1">
          <mxGeometry x="140.5" y="43.05" width="140" height="30" as="geometry" />
        </mxCell>
        <mxCell id="bOCi2ubxmbnxknkTj1Zq-336" value="" style="edgeStyle=orthogonalEdgeStyle;rounded=0;orthogonalLoop=1;jettySize=auto;html=1;strokeColor=#6767d5;" parent="bOCi2ubxmbnxknkTj1Zq-11" source="bOCi2ubxmbnxknkTj1Zq-125" edge="1">
          <mxGeometry relative="1" as="geometry">
            <mxPoint x="310" y="463.05" as="targetPoint" />
            <Array as="points">
              <mxPoint x="290" y="463" />
            </Array>
          </mxGeometry>
        </mxCell>
        <mxCell id="bOCi2ubxmbnxknkTj1Zq-338" value="Read/Write operations are performed from primary RDS instance." style="text;strokeColor=none;align=center;fillColor=none;html=1;verticalAlign=middle;whiteSpace=wrap;rounded=0;" parent="bOCi2ubxmbnxknkTj1Zq-11" vertex="1">
          <mxGeometry x="157" y="443.05000000000007" width="106" height="30" as="geometry" />
        </mxCell>
        <mxCell id="zCoN6z9puCoiUgl8uZSw-6" value="" style="sketch=0;points=[[0,0,0],[0.25,0,0],[0.5,0,0],[0.75,0,0],[1,0,0],[0,1,0],[0.25,1,0],[0.5,1,0],[0.75,1,0],[1,1,0],[0,0.25,0],[0,0.5,0],[0,0.75,0],[1,0.25,0],[1,0.5,0],[1,0.75,0]];outlineConnect=0;fontColor=#232F3E;fillColor=#7AA116;strokeColor=#ffffff;dashed=0;verticalLabelPosition=bottom;verticalAlign=top;align=center;html=1;fontSize=12;fontStyle=0;aspect=fixed;shape=mxgraph.aws4.resourceIcon;resIcon=mxgraph.aws4.efs_standard;" parent="bOCi2ubxmbnxknkTj1Zq-11" vertex="1">
          <mxGeometry x="190" y="319" width="40" height="40" as="geometry" />
        </mxCell>
        <mxCell id="zCoN6z9puCoiUgl8uZSw-7" value="EFS" style="text;strokeColor=none;align=center;fillColor=none;html=1;verticalAlign=middle;whiteSpace=wrap;rounded=0;" parent="bOCi2ubxmbnxknkTj1Zq-11" vertex="1">
          <mxGeometry x="185" y="358.99999999999994" width="55" height="30" as="geometry" />
        </mxCell>
        <mxCell id="UEzPUAAOIrF-is8g5C7q-78" value="Bucket" style="outlineConnect=0;fontColor=#232F3E;gradientColor=none;fillColor=#277116;strokeColor=none;dashed=0;verticalLabelPosition=bottom;verticalAlign=top;align=center;html=1;fontSize=12;fontStyle=0;aspect=fixed;pointerEvents=1;shape=mxgraph.aws4.bucket_with_objects;labelBackgroundColor=#ffffff;" parent="UEzPUAAOIrF-is8g5C7q-74" vertex="1">
          <mxGeometry x="741.25" y="660" width="40" height="41.6" as="geometry" />
        </mxCell>
        <mxCell id="bOCi2ubxmbnxknkTj1Zq-64" value="" style="sketch=0;points=[[0,0,0],[0.25,0,0],[0.5,0,0],[0.75,0,0],[1,0,0],[0,1,0],[0.25,1,0],[0.5,1,0],[0.75,1,0],[1,1,0],[0,0.25,0],[0,0.5,0],[0,0.75,0],[1,0.25,0],[1,0.5,0],[1,0.75,0]];outlineConnect=0;fontColor=#232F3E;gradientColor=#F54749;gradientDirection=north;fillColor=#C7131F;strokeColor=#ffffff;dashed=0;verticalLabelPosition=bottom;verticalAlign=top;align=center;html=1;fontSize=12;fontStyle=0;aspect=fixed;shape=mxgraph.aws4.resourceIcon;resIcon=mxgraph.aws4.secrets_manager;" parent="UEzPUAAOIrF-is8g5C7q-74" vertex="1">
          <mxGeometry x="509" y="660" width="40" height="40" as="geometry" />
        </mxCell>
        <mxCell id="bOCi2ubxmbnxknkTj1Zq-269" value="" style="edgeStyle=orthogonalEdgeStyle;rounded=0;orthogonalLoop=1;jettySize=auto;html=1;" parent="UEzPUAAOIrF-is8g5C7q-74" source="bOCi2ubxmbnxknkTj1Zq-66" target="bOCi2ubxmbnxknkTj1Zq-69" edge="1">
          <mxGeometry relative="1" as="geometry" />
        </mxCell>
        <mxCell id="bOCi2ubxmbnxknkTj1Zq-312" value="" style="edgeStyle=orthogonalEdgeStyle;rounded=0;orthogonalLoop=1;jettySize=auto;html=1;" parent="UEzPUAAOIrF-is8g5C7q-74" source="bOCi2ubxmbnxknkTj1Zq-66" edge="1">
          <mxGeometry relative="1" as="geometry">
            <mxPoint x="800" y="370" as="targetPoint" />
            <Array as="points">
              <mxPoint x="890" y="300" />
              <mxPoint x="890" y="370" />
            </Array>
          </mxGeometry>
        </mxCell>
        <mxCell id="bOCi2ubxmbnxknkTj1Zq-66" value="" style="sketch=0;points=[[0,0,0],[0.25,0,0],[0.5,0,0],[0.75,0,0],[1,0,0],[0,1,0],[0.25,1,0],[0.5,1,0],[0.75,1,0],[1,1,0],[0,0.25,0],[0,0.5,0],[0,0.75,0],[1,0.25,0],[1,0.5,0],[1,0.75,0]];outlineConnect=0;fontColor=#232F3E;gradientColor=#FF4F8B;gradientDirection=north;fillColor=#BC1356;strokeColor=#ffffff;dashed=0;verticalLabelPosition=bottom;verticalAlign=top;align=center;html=1;fontSize=12;fontStyle=0;aspect=fixed;shape=mxgraph.aws4.resourceIcon;resIcon=mxgraph.aws4.eventbridge;" parent="UEzPUAAOIrF-is8g5C7q-74" vertex="1">
          <mxGeometry x="910" y="280" width="40" height="40" as="geometry" />
        </mxCell>
        <mxCell id="bOCi2ubxmbnxknkTj1Zq-276" value="" style="edgeStyle=orthogonalEdgeStyle;rounded=0;orthogonalLoop=1;jettySize=auto;html=1;" parent="UEzPUAAOIrF-is8g5C7q-74" source="bOCi2ubxmbnxknkTj1Zq-69" edge="1">
          <mxGeometry relative="1" as="geometry">
            <mxPoint x="980" y="365" as="targetPoint" />
          </mxGeometry>
        </mxCell>
        <mxCell id="bOCi2ubxmbnxknkTj1Zq-69" value="" style="sketch=0;points=[[0,0,0],[0.25,0,0],[0.5,0,0],[0.75,0,0],[1,0,0],[0,1,0],[0.25,1,0],[0.5,1,0],[0.75,1,0],[1,1,0],[0,0.25,0],[0,0.5,0],[0,0.75,0],[1,0.25,0],[1,0.5,0],[1,0.75,0]];outlineConnect=0;fontColor=#232F3E;gradientColor=#F54749;gradientDirection=north;fillColor=#C7131F;strokeColor=#ffffff;dashed=0;verticalLabelPosition=bottom;verticalAlign=top;align=center;html=1;fontSize=12;fontStyle=0;aspect=fixed;shape=mxgraph.aws4.resourceIcon;resIcon=mxgraph.aws4.inspector;" parent="UEzPUAAOIrF-is8g5C7q-74" vertex="1">
          <mxGeometry x="910" y="344.99999999999994" width="40" height="40" as="geometry" />
        </mxCell>
        <mxCell id="bOCi2ubxmbnxknkTj1Zq-278" value="" style="edgeStyle=orthogonalEdgeStyle;rounded=0;orthogonalLoop=1;jettySize=auto;html=1;entryX=0;entryY=0.553;entryDx=0;entryDy=0;entryPerimeter=0;" parent="UEzPUAAOIrF-is8g5C7q-74" source="bOCi2ubxmbnxknkTj1Zq-70" target="bOCi2ubxmbnxknkTj1Zq-71" edge="1">
          <mxGeometry relative="1" as="geometry">
            <mxPoint x="1060" y="365" as="targetPoint" />
          </mxGeometry>
        </mxCell>
        <mxCell id="bOCi2ubxmbnxknkTj1Zq-279" value="" style="edgeStyle=orthogonalEdgeStyle;rounded=0;orthogonalLoop=1;jettySize=auto;html=1;" parent="UEzPUAAOIrF-is8g5C7q-74" source="bOCi2ubxmbnxknkTj1Zq-70" target="bOCi2ubxmbnxknkTj1Zq-72" edge="1">
          <mxGeometry relative="1" as="geometry" />
        </mxCell>
        <mxCell id="bOCi2ubxmbnxknkTj1Zq-70" value="" style="sketch=0;points=[[0,0,0],[0.25,0,0],[0.5,0,0],[0.75,0,0],[1,0,0],[0,1,0],[0.25,1,0],[0.5,1,0],[0.75,1,0],[1,1,0],[0,0.25,0],[0,0.5,0],[0,0.75,0],[1,0.25,0],[1,0.5,0],[1,0.75,0]];outlineConnect=0;fontColor=#232F3E;gradientColor=#F54749;gradientDirection=north;fillColor=#C7131F;strokeColor=#ffffff;dashed=0;verticalLabelPosition=bottom;verticalAlign=top;align=center;html=1;fontSize=12;fontStyle=0;aspect=fixed;shape=mxgraph.aws4.resourceIcon;resIcon=mxgraph.aws4.security_hub;" parent="UEzPUAAOIrF-is8g5C7q-74" vertex="1">
          <mxGeometry x="990" y="345" width="40" height="40" as="geometry" />
        </mxCell>
        <mxCell id="bOCi2ubxmbnxknkTj1Zq-71" value="" style="sketch=0;outlineConnect=0;fontColor=#232F3E;gradientColor=none;fillColor=#BF0816;strokeColor=none;dashed=0;verticalLabelPosition=bottom;verticalAlign=top;align=center;html=1;fontSize=12;fontStyle=0;aspect=fixed;pointerEvents=1;shape=mxgraph.aws4.finding;" parent="UEzPUAAOIrF-is8g5C7q-74" vertex="1">
          <mxGeometry x="1070" y="340.43" width="40" height="44.57" as="geometry" />
        </mxCell>
        <mxCell id="bOCi2ubxmbnxknkTj1Zq-73" value="" style="sketch=0;outlineConnect=0;fontColor=#232F3E;gradientColor=none;fillColor=#B0084D;strokeColor=none;dashed=0;verticalLabelPosition=bottom;verticalAlign=top;align=center;html=1;fontSize=12;fontStyle=0;aspect=fixed;pointerEvents=1;shape=mxgraph.aws4.email_notification;" parent="UEzPUAAOIrF-is8g5C7q-74" vertex="1">
          <mxGeometry x="1070" y="420" width="40" height="40" as="geometry" />
        </mxCell>
        <mxCell id="bOCi2ubxmbnxknkTj1Zq-290" value="" style="edgeStyle=orthogonalEdgeStyle;rounded=0;orthogonalLoop=1;jettySize=auto;html=1;" parent="UEzPUAAOIrF-is8g5C7q-74" source="bOCi2ubxmbnxknkTj1Zq-72" target="bOCi2ubxmbnxknkTj1Zq-73" edge="1">
          <mxGeometry relative="1" as="geometry">
            <Array as="points">
              <mxPoint x="1050" y="441" />
              <mxPoint x="1050" y="441" />
            </Array>
          </mxGeometry>
        </mxCell>
        <mxCell id="bOCi2ubxmbnxknkTj1Zq-72" value="" style="sketch=0;outlineConnect=0;fontColor=#232F3E;gradientColor=none;fillColor=#B0084D;strokeColor=none;dashed=0;verticalLabelPosition=bottom;verticalAlign=top;align=center;html=1;fontSize=12;fontStyle=0;aspect=fixed;pointerEvents=1;shape=mxgraph.aws4.topic;" parent="UEzPUAAOIrF-is8g5C7q-74" vertex="1">
          <mxGeometry x="990" y="424" width="40" height="34.36" as="geometry" />
        </mxCell>
        <mxCell id="bOCi2ubxmbnxknkTj1Zq-75" value="" style="fillColor=none;strokeColor=#5A6C86;verticalAlign=top;fontStyle=0;fontColor=#5A6C86;whiteSpace=wrap;html=1;" parent="UEzPUAAOIrF-is8g5C7q-74" vertex="1">
          <mxGeometry x="65" y="280" width="280" height="139" as="geometry" />
        </mxCell>
        <mxCell id="bOCi2ubxmbnxknkTj1Zq-78" value="" style="sketch=0;points=[[0,0,0],[0.25,0,0],[0.5,0,0],[0.75,0,0],[1,0,0],[0,1,0],[0.25,1,0],[0.5,1,0],[0.75,1,0],[1,1,0],[0,0.25,0],[0,0.5,0],[0,0.75,0],[1,0.25,0],[1,0.5,0],[1,0.75,0]];outlineConnect=0;fontColor=#232F3E;gradientColor=#4D72F3;gradientDirection=north;fillColor=#3334B9;strokeColor=#ffffff;dashed=0;verticalLabelPosition=bottom;verticalAlign=top;align=center;html=1;fontSize=12;fontStyle=0;aspect=fixed;shape=mxgraph.aws4.resourceIcon;resIcon=mxgraph.aws4.codepipeline;" parent="UEzPUAAOIrF-is8g5C7q-74" vertex="1">
          <mxGeometry x="65" y="280" width="40" height="40" as="geometry" />
        </mxCell>
        <mxCell id="bOCi2ubxmbnxknkTj1Zq-79" value="`" style="sketch=0;points=[[0,0,0],[0.25,0,0],[0.5,0,0],[0.75,0,0],[1,0,0],[0,1,0],[0.25,1,0],[0.5,1,0],[0.75,1,0],[1,1,0],[0,0.25,0],[0,0.5,0],[0,0.75,0],[1,0.25,0],[1,0.5,0],[1,0.75,0]];outlineConnect=0;fontColor=#232F3E;gradientColor=#4D72F3;gradientDirection=north;fillColor=#3334B9;strokeColor=#ffffff;dashed=0;verticalLabelPosition=bottom;verticalAlign=top;align=center;html=1;fontSize=12;fontStyle=0;aspect=fixed;shape=mxgraph.aws4.resourceIcon;resIcon=mxgraph.aws4.codecommit;" parent="UEzPUAAOIrF-is8g5C7q-74" vertex="1">
          <mxGeometry x="100.5" y="354" width="40" height="40" as="geometry" />
        </mxCell>
        <mxCell id="bOCi2ubxmbnxknkTj1Zq-77" value="" style="sketch=0;points=[[0,0,0],[0.25,0,0],[0.5,0,0],[0.75,0,0],[1,0,0],[0,1,0],[0.25,1,0],[0.5,1,0],[0.75,1,0],[1,1,0],[0,0.25,0],[0,0.5,0],[0,0.75,0],[1,0.25,0],[1,0.5,0],[1,0.75,0]];outlineConnect=0;fontColor=#232F3E;gradientColor=#4D72F3;gradientDirection=north;fillColor=#3334B9;strokeColor=#ffffff;dashed=0;verticalLabelPosition=bottom;verticalAlign=top;align=center;html=1;fontSize=12;fontStyle=0;aspect=fixed;shape=mxgraph.aws4.resourceIcon;resIcon=mxgraph.aws4.codedeploy;" parent="UEzPUAAOIrF-is8g5C7q-74" vertex="1">
          <mxGeometry x="270" y="354" width="40" height="40" as="geometry" />
        </mxCell>
        <mxCell id="bOCi2ubxmbnxknkTj1Zq-76" value="" style="sketch=0;points=[[0,0,0],[0.25,0,0],[0.5,0,0],[0.75,0,0],[1,0,0],[0,1,0],[0.25,1,0],[0.5,1,0],[0.75,1,0],[1,1,0],[0,0.25,0],[0,0.5,0],[0,0.75,0],[1,0.25,0],[1,0.5,0],[1,0.75,0]];outlineConnect=0;fontColor=#232F3E;gradientColor=#4D72F3;gradientDirection=north;fillColor=#3334B9;strokeColor=#ffffff;dashed=0;verticalLabelPosition=bottom;verticalAlign=top;align=center;html=1;fontSize=12;fontStyle=0;aspect=fixed;shape=mxgraph.aws4.resourceIcon;resIcon=mxgraph.aws4.codebuild;" parent="UEzPUAAOIrF-is8g5C7q-74" vertex="1">
          <mxGeometry x="185" y="350" width="44" height="44" as="geometry" />
        </mxCell>
        <mxCell id="bOCi2ubxmbnxknkTj1Zq-3" value="" style="sketch=0;outlineConnect=0;fontColor=#232F3E;gradientColor=none;fillColor=#4D27AA;strokeColor=none;dashed=0;verticalLabelPosition=bottom;verticalAlign=top;align=center;html=1;fontSize=12;fontStyle=0;aspect=fixed;pointerEvents=1;shape=mxgraph.aws4.internet_gateway;" parent="UEzPUAAOIrF-is8g5C7q-74" vertex="1">
          <mxGeometry x="620" y="-10" width="40" height="40" as="geometry" />
        </mxCell>
        <mxCell id="zCoN6z9puCoiUgl8uZSw-14" value="" style="edgeStyle=orthogonalEdgeStyle;rounded=0;orthogonalLoop=1;jettySize=auto;html=1;entryX=0.5;entryY=0;entryDx=0;entryDy=0;entryPerimeter=0;" parent="UEzPUAAOIrF-is8g5C7q-74" source="bOCi2ubxmbnxknkTj1Zq-90" target="bOCi2ubxmbnxknkTj1Zq-77" edge="1">
          <mxGeometry relative="1" as="geometry">
            <mxPoint x="283.75" y="310" as="targetPoint" />
          </mxGeometry>
        </mxCell>
        <mxCell id="bOCi2ubxmbnxknkTj1Zq-90" value="" style="sketch=0;points=[[0,0,0],[0.25,0,0],[0.5,0,0],[0.75,0,0],[1,0,0],[0,1,0],[0.25,1,0],[0.5,1,0],[0.75,1,0],[1,1,0],[0,0.25,0],[0,0.5,0],[0,0.75,0],[1,0.25,0],[1,0.5,0],[1,0.75,0]];outlineConnect=0;fontColor=#232F3E;gradientColor=#F78E04;gradientDirection=north;fillColor=#D05C17;strokeColor=#ffffff;dashed=0;verticalLabelPosition=bottom;verticalAlign=top;align=center;html=1;fontSize=12;fontStyle=0;aspect=fixed;shape=mxgraph.aws4.resourceIcon;resIcon=mxgraph.aws4.ecr;" parent="UEzPUAAOIrF-is8g5C7q-74" vertex="1">
          <mxGeometry x="183.75" y="280" width="40" height="40" as="geometry" />
        </mxCell>
        <mxCell id="bOCi2ubxmbnxknkTj1Zq-91" value="" style="sketch=0;points=[[0,0,0],[0.25,0,0],[0.5,0,0],[0.75,0,0],[1,0,0],[0,1,0],[0.25,1,0],[0.5,1,0],[0.75,1,0],[1,1,0],[0,0.25,0],[0,0.5,0],[0,0.75,0],[1,0.25,0],[1,0.5,0],[1,0.75,0]];points=[[0,0,0],[0.25,0,0],[0.5,0,0],[0.75,0,0],[1,0,0],[0,1,0],[0.25,1,0],[0.5,1,0],[0.75,1,0],[1,1,0],[0,0.25,0],[0,0.5,0],[0,0.75,0],[1,0.25,0],[1,0.5,0],[1,0.75,0]];outlineConnect=0;fontColor=#232F3E;gradientColor=#F34482;gradientDirection=north;fillColor=#BC1356;strokeColor=#ffffff;dashed=0;verticalLabelPosition=bottom;verticalAlign=top;align=center;html=1;fontSize=12;fontStyle=0;aspect=fixed;shape=mxgraph.aws4.resourceIcon;resIcon=mxgraph.aws4.cloudwatch_2;" parent="UEzPUAAOIrF-is8g5C7q-74" vertex="1">
          <mxGeometry x="317.5" y="661.6" width="40" height="40" as="geometry" />
        </mxCell>
        <mxCell id="bOCi2ubxmbnxknkTj1Zq-92" value="" style="sketch=0;points=[[0,0,0],[0.25,0,0],[0.5,0,0],[0.75,0,0],[1,0,0],[0,1,0],[0.25,1,0],[0.5,1,0],[0.75,1,0],[1,1,0],[0,0.25,0],[0,0.5,0],[0,0.75,0],[1,0.25,0],[1,0.5,0],[1,0.75,0]];outlineConnect=0;fontColor=#232F3E;gradientColor=#F54749;gradientDirection=north;fillColor=#C7131F;strokeColor=#ffffff;dashed=0;verticalLabelPosition=bottom;verticalAlign=top;align=center;html=1;fontSize=12;fontStyle=0;aspect=fixed;shape=mxgraph.aws4.resourceIcon;resIcon=mxgraph.aws4.cognito;" parent="UEzPUAAOIrF-is8g5C7q-74" vertex="1">
          <mxGeometry x="523" y="5" width="40" height="40" as="geometry" />
        </mxCell>
        <mxCell id="bOCi2ubxmbnxknkTj1Zq-95" value="" style="sketch=0;points=[[0,0,0],[0.25,0,0],[0.5,0,0],[0.75,0,0],[1,0,0],[0,1,0],[0.25,1,0],[0.5,1,0],[0.75,1,0],[1,1,0],[0,0.25,0],[0,0.5,0],[0,0.75,0],[1,0.25,0],[1,0.5,0],[1,0.75,0]];outlineConnect=0;fontColor=#232F3E;gradientColor=#945DF2;gradientDirection=north;fillColor=#5A30B5;strokeColor=#ffffff;dashed=0;verticalLabelPosition=bottom;verticalAlign=top;align=center;html=1;fontSize=12;fontStyle=0;aspect=fixed;shape=mxgraph.aws4.resourceIcon;resIcon=mxgraph.aws4.site_to_site_vpn;" parent="UEzPUAAOIrF-is8g5C7q-74" vertex="1">
          <mxGeometry x="930" y="491" width="40" height="40" as="geometry" />
        </mxCell>
        <mxCell id="bOCi2ubxmbnxknkTj1Zq-96" value="" style="verticalLabelPosition=bottom;html=1;verticalAlign=top;align=center;strokeColor=none;fillColor=#00BEF2;shape=mxgraph.azure.git_repository;" parent="UEzPUAAOIrF-is8g5C7q-74" vertex="1">
          <mxGeometry x="15" y="354" width="40" height="40" as="geometry" />
        </mxCell>
        <mxCell id="bOCi2ubxmbnxknkTj1Zq-203" value="" style="edgeStyle=orthogonalEdgeStyle;rounded=0;orthogonalLoop=1;jettySize=auto;html=1;" parent="UEzPUAAOIrF-is8g5C7q-74" source="bOCi2ubxmbnxknkTj1Zq-103" target="bOCi2ubxmbnxknkTj1Zq-95" edge="1">
          <mxGeometry relative="1" as="geometry" />
        </mxCell>
        <mxCell id="bOCi2ubxmbnxknkTj1Zq-103" value="" style="sketch=0;outlineConnect=0;fontColor=#232F3E;gradientColor=none;fillColor=#232F3D;strokeColor=none;dashed=0;verticalLabelPosition=bottom;verticalAlign=top;align=center;html=1;fontSize=12;fontStyle=0;aspect=fixed;pointerEvents=1;shape=mxgraph.aws4.office_building;" parent="UEzPUAAOIrF-is8g5C7q-74" vertex="1">
          <mxGeometry x="925" y="630" width="50" height="78" as="geometry" />
        </mxCell>
        <mxCell id="bOCi2ubxmbnxknkTj1Zq-106" value="Adventure HQ" style="text;strokeColor=none;align=center;fillColor=none;html=1;verticalAlign=middle;whiteSpace=wrap;rounded=0;" parent="UEzPUAAOIrF-is8g5C7q-74" vertex="1">
          <mxGeometry x="920" y="707" width="60" height="30" as="geometry" />
        </mxCell>
        <mxCell id="bOCi2ubxmbnxknkTj1Zq-218" value="" style="edgeStyle=orthogonalEdgeStyle;rounded=0;orthogonalLoop=1;jettySize=auto;html=1;" parent="UEzPUAAOIrF-is8g5C7q-74" source="bOCi2ubxmbnxknkTj1Zq-111" target="bOCi2ubxmbnxknkTj1Zq-161" edge="1">
          <mxGeometry relative="1" as="geometry">
            <Array as="points">
              <mxPoint x="300" y="440" />
              <mxPoint x="300" y="440" />
            </Array>
          </mxGeometry>
        </mxCell>
        <mxCell id="bOCi2ubxmbnxknkTj1Zq-111" value="" style="sketch=0;outlineConnect=0;fontColor=#232F3E;gradientColor=none;fillColor=#B0084D;strokeColor=none;dashed=0;verticalLabelPosition=bottom;verticalAlign=top;align=center;html=1;fontSize=12;fontStyle=0;aspect=fixed;pointerEvents=1;shape=mxgraph.aws4.parameter_store;" parent="UEzPUAAOIrF-is8g5C7q-74" vertex="1">
          <mxGeometry x="270" y="480" width="40" height="41.6" as="geometry" />
        </mxCell>
        <mxCell id="bOCi2ubxmbnxknkTj1Zq-63" value="" style="sketch=0;outlineConnect=0;fontColor=#232F3E;gradientColor=none;fillColor=#4D27AA;strokeColor=none;dashed=0;verticalLabelPosition=bottom;verticalAlign=top;align=center;html=1;fontSize=12;fontStyle=0;aspect=fixed;pointerEvents=1;shape=mxgraph.aws4.endpoints;" parent="UEzPUAAOIrF-is8g5C7q-74" vertex="1">
          <mxGeometry x="741.25" y="600" width="40" height="40" as="geometry" />
        </mxCell>
        <mxCell id="bOCi2ubxmbnxknkTj1Zq-113" value="" style="edgeStyle=orthogonalEdgeStyle;html=1;endArrow=none;elbow=vertical;startArrow=block;startFill=1;strokeColor=#545B64;rounded=0;" parent="UEzPUAAOIrF-is8g5C7q-74" edge="1">
          <mxGeometry width="100" relative="1" as="geometry">
            <mxPoint x="639.5" y="46.95" as="sourcePoint" />
            <mxPoint x="639.5" y="16.95" as="targetPoint" />
            <Array as="points">
              <mxPoint x="639.5" y="26.95" />
              <mxPoint x="639.5" y="26.95" />
            </Array>
          </mxGeometry>
        </mxCell>
        <mxCell id="bOCi2ubxmbnxknkTj1Zq-134" value="VPC Endpoint" style="text;strokeColor=none;align=center;fillColor=none;html=1;verticalAlign=middle;whiteSpace=wrap;rounded=0;" parent="UEzPUAAOIrF-is8g5C7q-74" vertex="1">
          <mxGeometry x="480" y="630" width="106" height="30" as="geometry" />
        </mxCell>
        <mxCell id="bOCi2ubxmbnxknkTj1Zq-136" value="VPC Endpoint" style="text;strokeColor=none;align=center;fillColor=none;html=1;verticalAlign=middle;whiteSpace=wrap;rounded=0;" parent="UEzPUAAOIrF-is8g5C7q-74" vertex="1">
          <mxGeometry x="700" y="630" width="106" height="30" as="geometry" />
        </mxCell>
        <mxCell id="bOCi2ubxmbnxknkTj1Zq-137" value="Secrets Manager&lt;br&gt;" style="text;strokeColor=none;align=center;fillColor=none;html=1;verticalAlign=middle;whiteSpace=wrap;rounded=0;" parent="UEzPUAAOIrF-is8g5C7q-74" vertex="1">
          <mxGeometry x="480" y="701.6" width="100" height="30" as="geometry" />
        </mxCell>
        <mxCell id="bOCi2ubxmbnxknkTj1Zq-146" value="" style="endArrow=classic;html=1;rounded=0;" parent="UEzPUAAOIrF-is8g5C7q-74" edge="1">
          <mxGeometry relative="1" as="geometry">
            <mxPoint x="925" y="520.4" as="sourcePoint" />
            <mxPoint x="785" y="520" as="targetPoint" />
          </mxGeometry>
        </mxCell>
        <mxCell id="bOCi2ubxmbnxknkTj1Zq-147" value="SSRS Reports" style="edgeLabel;resizable=0;html=1;align=center;verticalAlign=middle;" parent="bOCi2ubxmbnxknkTj1Zq-146" connectable="0" vertex="1">
          <mxGeometry relative="1" as="geometry">
            <mxPoint x="-4" y="10" as="offset" />
          </mxGeometry>
        </mxCell>
        <mxCell id="bOCi2ubxmbnxknkTj1Zq-159" value="CodeCommit&lt;br&gt;" style="text;strokeColor=none;align=center;fillColor=none;html=1;verticalAlign=middle;whiteSpace=wrap;rounded=0;" parent="UEzPUAAOIrF-is8g5C7q-74" vertex="1">
          <mxGeometry x="93" y="393.99999999999994" width="55" height="30" as="geometry" />
        </mxCell>
        <mxCell id="bOCi2ubxmbnxknkTj1Zq-217" value="" style="edgeStyle=orthogonalEdgeStyle;rounded=0;orthogonalLoop=1;jettySize=auto;html=1;" parent="UEzPUAAOIrF-is8g5C7q-74" edge="1">
          <mxGeometry relative="1" as="geometry">
            <mxPoint x="282" y="421.6" as="sourcePoint" />
            <mxPoint x="282" y="481.6" as="targetPoint" />
          </mxGeometry>
        </mxCell>
        <mxCell id="bOCi2ubxmbnxknkTj1Zq-161" value="CodeDeploy" style="text;strokeColor=none;align=center;fillColor=none;html=1;verticalAlign=middle;whiteSpace=wrap;rounded=0;" parent="UEzPUAAOIrF-is8g5C7q-74" vertex="1">
          <mxGeometry x="262.5" y="393.99999999999994" width="55" height="30" as="geometry" />
        </mxCell>
        <mxCell id="bOCi2ubxmbnxknkTj1Zq-175" value="" style="edgeStyle=none;orthogonalLoop=1;jettySize=auto;html=1;rounded=0;" parent="UEzPUAAOIrF-is8g5C7q-74" edge="1">
          <mxGeometry width="100" relative="1" as="geometry">
            <mxPoint x="60.5" y="373.5" as="sourcePoint" />
            <mxPoint x="100.5" y="373.5" as="targetPoint" />
            <Array as="points" />
          </mxGeometry>
        </mxCell>
        <mxCell id="bOCi2ubxmbnxknkTj1Zq-176" value="" style="edgeStyle=none;orthogonalLoop=1;jettySize=auto;html=1;rounded=0;" parent="UEzPUAAOIrF-is8g5C7q-74" edge="1">
          <mxGeometry width="100" relative="1" as="geometry">
            <mxPoint x="142.5" y="373.5" as="sourcePoint" />
            <mxPoint x="182.5" y="373.5" as="targetPoint" />
            <Array as="points" />
          </mxGeometry>
        </mxCell>
        <mxCell id="bOCi2ubxmbnxknkTj1Zq-188" value="" style="edgeStyle=none;orthogonalLoop=1;jettySize=auto;html=1;rounded=0;" parent="UEzPUAAOIrF-is8g5C7q-74" edge="1">
          <mxGeometry width="100" relative="1" as="geometry">
            <mxPoint x="230" y="373.5" as="sourcePoint" />
            <mxPoint x="270" y="373.5" as="targetPoint" />
            <Array as="points" />
          </mxGeometry>
        </mxCell>
        <mxCell id="bOCi2ubxmbnxknkTj1Zq-189" value="" style="edgeStyle=none;orthogonalLoop=1;jettySize=auto;html=1;rounded=0;dashed=1;" parent="UEzPUAAOIrF-is8g5C7q-74" edge="1">
          <mxGeometry width="100" relative="1" as="geometry">
            <mxPoint x="317.5" y="373.5" as="sourcePoint" />
            <mxPoint x="480" y="374" as="targetPoint" />
            <Array as="points" />
          </mxGeometry>
        </mxCell>
        <mxCell id="bOCi2ubxmbnxknkTj1Zq-193" value="Separate pipelines to deploy images on EKS, application code on Application servers &amp;amp; code on Lambda functions" style="text;strokeColor=none;align=center;fillColor=none;html=1;verticalAlign=middle;whiteSpace=wrap;rounded=0;" parent="UEzPUAAOIrF-is8g5C7q-74" vertex="1">
          <mxGeometry x="333" y="461.6" width="55" height="20" as="geometry" />
        </mxCell>
        <mxCell id="bOCi2ubxmbnxknkTj1Zq-201" value="" style="edgeStyle=orthogonalEdgeStyle;rounded=0;orthogonalLoop=1;jettySize=auto;html=1;" parent="UEzPUAAOIrF-is8g5C7q-74" source="bOCi2ubxmbnxknkTj1Zq-199" edge="1">
          <mxGeometry relative="1" as="geometry">
            <mxPoint x="35" y="410" as="targetPoint" />
          </mxGeometry>
        </mxCell>
        <mxCell id="bOCi2ubxmbnxknkTj1Zq-199" value="" style="sketch=0;outlineConnect=0;fontColor=#232F3E;gradientColor=none;fillColor=#232F3D;strokeColor=none;dashed=0;verticalLabelPosition=bottom;verticalAlign=top;align=center;html=1;fontSize=12;fontStyle=0;aspect=fixed;pointerEvents=1;shape=mxgraph.aws4.users;" parent="UEzPUAAOIrF-is8g5C7q-74" vertex="1">
          <mxGeometry x="15" y="481.6" width="40" height="40" as="geometry" />
        </mxCell>
        <mxCell id="bOCi2ubxmbnxknkTj1Zq-204" value="VPN Connection" style="text;strokeColor=none;align=center;fillColor=none;html=1;verticalAlign=middle;whiteSpace=wrap;rounded=0;" parent="UEzPUAAOIrF-is8g5C7q-74" vertex="1">
          <mxGeometry x="941.5" y="560" width="106" height="30" as="geometry" />
        </mxCell>
        <mxCell id="bOCi2ubxmbnxknkTj1Zq-206" value="Parameter Store (To store values like DB connection strings or other dynamic variables)" style="text;strokeColor=none;align=center;fillColor=none;html=1;verticalAlign=middle;whiteSpace=wrap;rounded=0;" parent="UEzPUAAOIrF-is8g5C7q-74" vertex="1">
          <mxGeometry x="247.5" y="560" width="85" height="30" as="geometry" />
        </mxCell>
        <mxCell id="bOCi2ubxmbnxknkTj1Zq-207" value="Developers" style="text;strokeColor=none;align=center;fillColor=none;html=1;verticalAlign=middle;whiteSpace=wrap;rounded=0;" parent="UEzPUAAOIrF-is8g5C7q-74" vertex="1">
          <mxGeometry x="15" y="521.6" width="55" height="30" as="geometry" />
        </mxCell>
        <mxCell id="bOCi2ubxmbnxknkTj1Zq-208" value="Git" style="text;strokeColor=none;align=center;fillColor=none;html=1;verticalAlign=middle;whiteSpace=wrap;rounded=0;" parent="UEzPUAAOIrF-is8g5C7q-74" vertex="1">
          <mxGeometry x="10" y="389" width="55" height="30" as="geometry" />
        </mxCell>
        <mxCell id="bOCi2ubxmbnxknkTj1Zq-209" value="Commit" style="text;strokeColor=none;align=center;fillColor=none;html=1;verticalAlign=middle;whiteSpace=wrap;rounded=0;" parent="UEzPUAAOIrF-is8g5C7q-74" vertex="1">
          <mxGeometry x="45.5" y="350" width="55" height="30" as="geometry" />
        </mxCell>
        <mxCell id="bOCi2ubxmbnxknkTj1Zq-84" value="" style="sketch=0;outlineConnect=0;fontColor=#232F3E;gradientColor=none;fillColor=#B0084D;strokeColor=none;dashed=0;verticalLabelPosition=bottom;verticalAlign=top;align=center;html=1;fontSize=12;fontStyle=0;aspect=fixed;pointerEvents=1;shape=mxgraph.aws4.endpoint;" parent="UEzPUAAOIrF-is8g5C7q-74" vertex="1">
          <mxGeometry x="360" y="174.95" width="40" height="40" as="geometry" />
        </mxCell>
        <mxCell id="bOCi2ubxmbnxknkTj1Zq-83" value="" style="sketch=0;points=[[0,0,0],[0.25,0,0],[0.5,0,0],[0.75,0,0],[1,0,0],[0,1,0],[0.25,1,0],[0.5,1,0],[0.75,1,0],[1,1,0],[0,0.25,0],[0,0.5,0],[0,0.75,0],[1,0.25,0],[1,0.5,0],[1,0.75,0]];outlineConnect=0;fontColor=#232F3E;gradientColor=#FF4F8B;gradientDirection=north;fillColor=#BC1356;strokeColor=#ffffff;dashed=0;verticalLabelPosition=bottom;verticalAlign=top;align=center;html=1;fontSize=12;fontStyle=0;aspect=fixed;shape=mxgraph.aws4.resourceIcon;resIcon=mxgraph.aws4.api_gateway;" parent="UEzPUAAOIrF-is8g5C7q-74" vertex="1">
          <mxGeometry x="360" y="119.95" width="40" height="40" as="geometry" />
        </mxCell>
        <mxCell id="bOCi2ubxmbnxknkTj1Zq-255" value="" style="edgeStyle=orthogonalEdgeStyle;orthogonalLoop=1;jettySize=auto;html=1;strokeColor=#ff0033;dashed=1;curved=1;startArrow=classic;startFill=1;" parent="UEzPUAAOIrF-is8g5C7q-74" source="bOCi2ubxmbnxknkTj1Zq-229" target="bOCi2ubxmbnxknkTj1Zq-57" edge="1">
          <mxGeometry relative="1" as="geometry">
            <mxPoint x="470" y="300" as="targetPoint" />
            <Array as="points">
              <mxPoint x="380" y="300" />
            </Array>
          </mxGeometry>
        </mxCell>
        <mxCell id="bOCi2ubxmbnxknkTj1Zq-229" value="" style="rounded=0;whiteSpace=wrap;html=1;dashed=1;fillColor=none;strokeColor=#ff0033;" parent="UEzPUAAOIrF-is8g5C7q-74" vertex="1">
          <mxGeometry x="360" y="154.95" width="40" height="55.05" as="geometry" />
        </mxCell>
        <mxCell id="bOCi2ubxmbnxknkTj1Zq-231" value="Modernized API Endpoint" style="text;strokeColor=none;align=center;fillColor=none;html=1;verticalAlign=middle;whiteSpace=wrap;rounded=0;" parent="UEzPUAAOIrF-is8g5C7q-74" vertex="1">
          <mxGeometry x="220" y="189.95" width="140" height="30" as="geometry" />
        </mxCell>
        <mxCell id="bOCi2ubxmbnxknkTj1Zq-232" value="API Gateway" style="text;strokeColor=none;align=center;fillColor=none;html=1;verticalAlign=middle;whiteSpace=wrap;rounded=0;" parent="UEzPUAAOIrF-is8g5C7q-74" vertex="1">
          <mxGeometry x="320" y="154.95" width="120" height="25.05" as="geometry" />
        </mxCell>
        <mxCell id="bOCi2ubxmbnxknkTj1Zq-252" value="Cognito integration&amp;nbsp;" style="text;strokeColor=none;align=center;fillColor=none;html=1;verticalAlign=middle;whiteSpace=wrap;rounded=0;" parent="UEzPUAAOIrF-is8g5C7q-74" vertex="1">
          <mxGeometry x="413" y="20" width="110" height="30" as="geometry" />
        </mxCell>
        <mxCell id="bOCi2ubxmbnxknkTj1Zq-256" value="Unauthenticated Traffic for search queries" style="text;strokeColor=none;align=center;fillColor=none;html=1;verticalAlign=middle;whiteSpace=wrap;rounded=0;" parent="UEzPUAAOIrF-is8g5C7q-74" vertex="1">
          <mxGeometry x="250" y="30" width="128" height="30" as="geometry" />
        </mxCell>
        <mxCell id="bOCi2ubxmbnxknkTj1Zq-264" value="&lt;font color=&quot;#bd7000&quot;&gt;Lambda reads/writes values from/to RDS for different tasks/queries&amp;nbsp;&lt;/font&gt;" style="text;strokeColor=none;align=center;fillColor=none;html=1;verticalAlign=middle;whiteSpace=wrap;rounded=0;" parent="UEzPUAAOIrF-is8g5C7q-74" vertex="1">
          <mxGeometry x="824" y="470" width="116" height="30" as="geometry" />
        </mxCell>
        <mxCell id="bOCi2ubxmbnxknkTj1Zq-272" value="Eventbridge" style="text;strokeColor=none;align=center;fillColor=none;html=1;verticalAlign=middle;whiteSpace=wrap;rounded=0;" parent="UEzPUAAOIrF-is8g5C7q-74" vertex="1">
          <mxGeometry x="897" y="315" width="106" height="30" as="geometry" />
        </mxCell>
        <mxCell id="bOCi2ubxmbnxknkTj1Zq-273" value="Inspector" style="text;strokeColor=none;align=center;fillColor=none;html=1;verticalAlign=middle;whiteSpace=wrap;rounded=0;" parent="UEzPUAAOIrF-is8g5C7q-74" vertex="1">
          <mxGeometry x="877" y="380" width="106" height="30" as="geometry" />
        </mxCell>
        <mxCell id="bOCi2ubxmbnxknkTj1Zq-274" value="Security Hub" style="text;strokeColor=none;align=center;fillColor=none;html=1;verticalAlign=middle;whiteSpace=wrap;rounded=0;" parent="UEzPUAAOIrF-is8g5C7q-74" vertex="1">
          <mxGeometry x="964" y="380" width="106" height="30" as="geometry" />
        </mxCell>
        <mxCell id="bOCi2ubxmbnxknkTj1Zq-275" value="Insights" style="text;strokeColor=none;align=center;fillColor=none;html=1;verticalAlign=middle;whiteSpace=wrap;rounded=0;" parent="UEzPUAAOIrF-is8g5C7q-74" vertex="1">
          <mxGeometry x="1037" y="380" width="106" height="30" as="geometry" />
        </mxCell>
        <mxCell id="bOCi2ubxmbnxknkTj1Zq-281" value="SNS Topic" style="text;strokeColor=none;align=center;fillColor=none;html=1;verticalAlign=middle;whiteSpace=wrap;rounded=0;" parent="UEzPUAAOIrF-is8g5C7q-74" vertex="1">
          <mxGeometry x="964" y="460" width="106" height="30" as="geometry" />
        </mxCell>
        <mxCell id="bOCi2ubxmbnxknkTj1Zq-291" value="Email&lt;br&gt;&amp;nbsp;Notifcation" style="text;strokeColor=none;align=center;fillColor=none;html=1;verticalAlign=middle;whiteSpace=wrap;rounded=0;" parent="UEzPUAAOIrF-is8g5C7q-74" vertex="1">
          <mxGeometry x="1037" y="460" width="106" height="30" as="geometry" />
        </mxCell>
        <mxCell id="bOCi2ubxmbnxknkTj1Zq-295" value="" style="sketch=0;points=[[0,0,0],[0.25,0,0],[0.5,0,0],[0.75,0,0],[1,0,0],[0,1,0],[0.25,1,0],[0.5,1,0],[0.75,1,0],[1,1,0],[0,0.25,0],[0,0.5,0],[0,0.75,0],[1,0.25,0],[1,0.5,0],[1,0.75,0]];outlineConnect=0;fontColor=#232F3E;gradientColor=#F54749;gradientDirection=north;fillColor=#C7131F;strokeColor=#ffffff;dashed=0;verticalLabelPosition=bottom;verticalAlign=top;align=center;html=1;fontSize=12;fontStyle=0;aspect=fixed;shape=mxgraph.aws4.resourceIcon;resIcon=mxgraph.aws4.key_management_service;" parent="UEzPUAAOIrF-is8g5C7q-74" vertex="1">
          <mxGeometry x="240" y="661.6" width="40" height="40" as="geometry" />
        </mxCell>
        <mxCell id="bOCi2ubxmbnxknkTj1Zq-293" value="" style="sketch=0;points=[[0,0,0],[0.25,0,0],[0.5,0,0],[0.75,0,0],[1,0,0],[0,1,0],[0.25,1,0],[0.5,1,0],[0.75,1,0],[1,1,0],[0,0.25,0],[0,0.5,0],[0,0.75,0],[1,0.25,0],[1,0.5,0],[1,0.75,0]];outlineConnect=0;fontColor=#232F3E;gradientColor=#F54749;gradientDirection=north;fillColor=#C7131F;strokeColor=#ffffff;dashed=0;verticalLabelPosition=bottom;verticalAlign=top;align=center;html=1;fontSize=12;fontStyle=0;aspect=fixed;shape=mxgraph.aws4.resourceIcon;resIcon=mxgraph.aws4.guardduty;" parent="UEzPUAAOIrF-is8g5C7q-74" vertex="1">
          <mxGeometry x="170" y="660.8000000000001" width="40" height="40" as="geometry" />
        </mxCell>
        <mxCell id="bOCi2ubxmbnxknkTj1Zq-292" value="" style="sketch=0;points=[[0,0,0],[0.25,0,0],[0.5,0,0],[0.75,0,0],[1,0,0],[0,1,0],[0.25,1,0],[0.5,1,0],[0.75,1,0],[1,1,0],[0,0.25,0],[0,0.5,0],[0,0.75,0],[1,0.25,0],[1,0.5,0],[1,0.75,0]];points=[[0,0,0],[0.25,0,0],[0.5,0,0],[0.75,0,0],[1,0,0],[0,1,0],[0.25,1,0],[0.5,1,0],[0.75,1,0],[1,1,0],[0,0.25,0],[0,0.5,0],[0,0.75,0],[1,0.25,0],[1,0.5,0],[1,0.75,0]];outlineConnect=0;fontColor=#232F3E;gradientColor=#F34482;gradientDirection=north;fillColor=#BC1356;strokeColor=#ffffff;dashed=0;verticalLabelPosition=bottom;verticalAlign=top;align=center;html=1;fontSize=12;fontStyle=0;aspect=fixed;shape=mxgraph.aws4.resourceIcon;resIcon=mxgraph.aws4.cloudtrail;" parent="UEzPUAAOIrF-is8g5C7q-74" vertex="1">
          <mxGeometry x="93" y="660.8" width="40" height="40" as="geometry" />
        </mxCell>
        <mxCell id="bOCi2ubxmbnxknkTj1Zq-296" value="CloudWatch&lt;br&gt;" style="text;strokeColor=none;align=center;fillColor=none;html=1;verticalAlign=middle;whiteSpace=wrap;rounded=0;" parent="UEzPUAAOIrF-is8g5C7q-74" vertex="1">
          <mxGeometry x="288" y="701.6" width="100" height="30" as="geometry" />
        </mxCell>
        <mxCell id="bOCi2ubxmbnxknkTj1Zq-297" value="KMS" style="text;strokeColor=none;align=center;fillColor=none;html=1;verticalAlign=middle;whiteSpace=wrap;rounded=0;" parent="UEzPUAAOIrF-is8g5C7q-74" vertex="1">
          <mxGeometry x="210" y="700" width="100" height="30" as="geometry" />
        </mxCell>
        <mxCell id="bOCi2ubxmbnxknkTj1Zq-298" value="GuardDuty" style="text;strokeColor=none;align=center;fillColor=none;html=1;verticalAlign=middle;whiteSpace=wrap;rounded=0;" parent="UEzPUAAOIrF-is8g5C7q-74" vertex="1">
          <mxGeometry x="140.5" y="701.6" width="100" height="30" as="geometry" />
        </mxCell>
        <mxCell id="bOCi2ubxmbnxknkTj1Zq-299" value="CloudTrail" style="text;strokeColor=none;align=center;fillColor=none;html=1;verticalAlign=middle;whiteSpace=wrap;rounded=0;" parent="UEzPUAAOIrF-is8g5C7q-74" vertex="1">
          <mxGeometry x="63" y="701.6" width="100" height="30" as="geometry" />
        </mxCell>
        <mxCell id="bOCi2ubxmbnxknkTj1Zq-302" value="Vulnerabilty inspection of EC2 workloads" style="text;strokeColor=none;align=center;fillColor=none;html=1;verticalAlign=middle;whiteSpace=wrap;rounded=0;fontColor=#ff0033;" parent="UEzPUAAOIrF-is8g5C7q-74" vertex="1">
          <mxGeometry x="840" y="410" width="122" height="30" as="geometry" />
        </mxCell>
        <mxCell id="bOCi2ubxmbnxknkTj1Zq-306" value="Daily 1 AM Lamda fn is triggered" style="text;strokeColor=none;align=center;fillColor=none;html=1;verticalAlign=middle;whiteSpace=wrap;rounded=0;" parent="UEzPUAAOIrF-is8g5C7q-74" vertex="1">
          <mxGeometry x="840" y="268.47" width="51" height="130" as="geometry" />
        </mxCell>
        <mxCell id="bOCi2ubxmbnxknkTj1Zq-319" value="Read Queries" style="text;strokeColor=none;align=center;fillColor=none;html=1;verticalAlign=middle;whiteSpace=wrap;rounded=0;" parent="UEzPUAAOIrF-is8g5C7q-74" vertex="1">
          <mxGeometry x="864" y="159.95" width="106" height="30" as="geometry" />
        </mxCell>
        <mxCell id="bOCi2ubxmbnxknkTj1Zq-320" value="Business Partner Databases" style="text;strokeColor=none;align=center;fillColor=none;html=1;verticalAlign=middle;whiteSpace=wrap;rounded=0;" parent="UEzPUAAOIrF-is8g5C7q-74" vertex="1">
          <mxGeometry x="954.5" y="210" width="93" height="30" as="geometry" />
        </mxCell>
        <mxCell id="bOCi2ubxmbnxknkTj1Zq-339" value="" style="sketch=0;points=[[0,0,0],[0.25,0,0],[0.5,0,0],[0.75,0,0],[1,0,0],[0,1,0],[0.25,1,0],[0.5,1,0],[0.75,1,0],[1,1,0],[0,0.25,0],[0,0.5,0],[0,0.75,0],[1,0.25,0],[1,0.5,0],[1,0.75,0]];outlineConnect=0;fontColor=#232F3E;gradientColor=#F54749;gradientDirection=north;fillColor=#C7131F;strokeColor=#ffffff;dashed=0;verticalLabelPosition=bottom;verticalAlign=top;align=center;html=1;fontSize=12;fontStyle=0;aspect=fixed;shape=mxgraph.aws4.resourceIcon;resIcon=mxgraph.aws4.certificate_manager_3;" parent="UEzPUAAOIrF-is8g5C7q-74" vertex="1">
          <mxGeometry x="17.5" y="661.6" width="40" height="40" as="geometry" />
        </mxCell>
        <mxCell id="bOCi2ubxmbnxknkTj1Zq-340" value="Certificate Manager" style="text;strokeColor=none;align=center;fillColor=none;html=1;verticalAlign=middle;whiteSpace=wrap;rounded=0;" parent="UEzPUAAOIrF-is8g5C7q-74" vertex="1">
          <mxGeometry x="-12.5" y="706.9999999999999" width="100" height="30" as="geometry" />
        </mxCell>
        <mxCell id="zCoN6z9puCoiUgl8uZSw-8" value="" style="image;aspect=fixed;perimeter=ellipsePerimeter;html=1;align=center;shadow=0;dashed=0;spacingTop=3;image=img/lib/active_directory/database_server.svg;" parent="UEzPUAAOIrF-is8g5C7q-74" vertex="1">
          <mxGeometry x="990" y="149.95" width="41" height="50" as="geometry" />
        </mxCell>
        <mxCell id="bOCi2ubxmbnxknkTj1Zq-263" value="" style="endArrow=classic;html=1;rounded=0;entryX=0;entryY=0.75;entryDx=0;entryDy=0;fillColor=#f0a30a;strokeColor=#BD7000;exitX=0.855;exitY=0.145;exitDx=0;exitDy=0;exitPerimeter=0;" parent="UEzPUAAOIrF-is8g5C7q-74" source="bOCi2ubxmbnxknkTj1Zq-65" target="zCoN6z9puCoiUgl8uZSw-8" edge="1">
          <mxGeometry width="50" height="50" relative="1" as="geometry">
            <mxPoint x="799" y="352" as="sourcePoint" />
            <mxPoint x="795" y="185" as="targetPoint" />
            <Array as="points">
              <mxPoint x="820" y="357" />
              <mxPoint x="820" y="185" />
            </Array>
          </mxGeometry>
        </mxCell>
        <mxCell id="zCoN6z9puCoiUgl8uZSw-15" value="CodePipeline" style="text;strokeColor=none;align=center;fillColor=none;html=1;verticalAlign=middle;whiteSpace=wrap;rounded=0;" parent="UEzPUAAOIrF-is8g5C7q-74" vertex="1">
          <mxGeometry x="179.5" y="250" width="55" height="30" as="geometry" />
        </mxCell>
        <mxCell id="zCoN6z9puCoiUgl8uZSw-21" value="" style="edgeStyle=orthogonalEdgeStyle;rounded=0;orthogonalLoop=1;jettySize=auto;html=1;" parent="UEzPUAAOIrF-is8g5C7q-74" source="bOCi2ubxmbnxknkTj1Zq-76" target="zCoN6z9puCoiUgl8uZSw-16" edge="1">
          <mxGeometry relative="1" as="geometry">
            <mxPoint x="224" y="430" as="sourcePoint" />
            <mxPoint x="221" y="360" as="targetPoint" />
            <Array as="points">
              <mxPoint x="213" y="350" />
              <mxPoint x="213" y="350" />
            </Array>
          </mxGeometry>
        </mxCell>
        <mxCell id="zCoN6z9puCoiUgl8uZSw-16" value="ECR" style="text;strokeColor=none;align=center;fillColor=none;html=1;verticalAlign=middle;whiteSpace=wrap;rounded=0;" parent="UEzPUAAOIrF-is8g5C7q-74" vertex="1">
          <mxGeometry x="179.5" y="320" width="50.5" height="15" as="geometry" />
        </mxCell>
        <mxCell id="zCoN6z9puCoiUgl8uZSw-30" value="" style="outlineConnect=0;dashed=0;verticalLabelPosition=bottom;verticalAlign=top;align=center;html=1;shape=mxgraph.aws3.dynamo_db;fillColor=#2E73B8;gradientColor=none;" parent="UEzPUAAOIrF-is8g5C7q-74" vertex="1">
          <mxGeometry x="620" y="651.6" width="50" height="50" as="geometry" />
        </mxCell>
        <mxCell id="zCoN6z9puCoiUgl8uZSw-32" value="DynamoDB" style="text;strokeColor=none;align=center;fillColor=none;html=1;verticalAlign=middle;whiteSpace=wrap;rounded=0;" parent="UEzPUAAOIrF-is8g5C7q-74" vertex="1">
          <mxGeometry x="600" y="701.6" width="100" height="30" as="geometry" />
        </mxCell>
        <mxCell id="n9lMz2MXiLyME76n8b-P-1" value="REGION 1" style="text;strokeColor=none;align=center;fillColor=none;html=1;verticalAlign=middle;whiteSpace=wrap;rounded=0;" vertex="1" parent="UEzPUAAOIrF-is8g5C7q-74">
          <mxGeometry x="17.5" width="103" height="30" as="geometry" />
        </mxCell>
        <mxCell id="bOCi2ubxmbnxknkTj1Zq-242" value="" style="edgeStyle=orthogonalEdgeStyle;rounded=0;orthogonalLoop=1;jettySize=auto;html=1;" parent="1" source="zCoN6z9puCoiUgl8uZSw-1" target="bOCi2ubxmbnxknkTj1Zq-3" edge="1">
          <mxGeometry relative="1" as="geometry">
            <Array as="points">
              <mxPoint x="660" y="33" />
            </Array>
          </mxGeometry>
        </mxCell>
        <mxCell id="zCoN6z9puCoiUgl8uZSw-28" value="" style="edgeStyle=orthogonalEdgeStyle;rounded=0;orthogonalLoop=1;jettySize=auto;html=1;" parent="1" source="bOCi2ubxmbnxknkTj1Zq-234" target="bOCi2ubxmbnxknkTj1Zq-92" edge="1">
          <mxGeometry relative="1" as="geometry">
            <mxPoint x="530" y="105" as="targetPoint" />
            <Array as="points">
              <mxPoint x="490" y="105" />
            </Array>
          </mxGeometry>
        </mxCell>
        <mxCell id="bOCi2ubxmbnxknkTj1Zq-234" value="" style="image;points=[];aspect=fixed;html=1;align=center;shadow=0;dashed=0;image=img/lib/allied_telesis/computer_and_terminals/Personal_Computer.svg;" parent="1" vertex="1">
          <mxGeometry x="470" y="5.790000000000003" width="40" height="54.21" as="geometry" />
        </mxCell>
        <mxCell id="bOCi2ubxmbnxknkTj1Zq-248" value="" style="edgeStyle=orthogonalEdgeStyle;rounded=0;orthogonalLoop=1;jettySize=auto;html=1;fontColor=#ff0033;strokeColor=#ff0033;dashed=1;" parent="1" source="bOCi2ubxmbnxknkTj1Zq-247" target="bOCi2ubxmbnxknkTj1Zq-83" edge="1">
          <mxGeometry relative="1" as="geometry" />
        </mxCell>
        <mxCell id="bOCi2ubxmbnxknkTj1Zq-247" value="" style="image;points=[];aspect=fixed;html=1;align=center;shadow=0;dashed=0;image=img/lib/allied_telesis/computer_and_terminals/Personal_Computer.svg;" parent="1" vertex="1">
          <mxGeometry x="377" y="5.790000000000003" width="40" height="54.21" as="geometry" />
        </mxCell>
        <mxCell id="zCoN6z9puCoiUgl8uZSw-4" value="" style="edgeStyle=orthogonalEdgeStyle;rounded=0;orthogonalLoop=1;jettySize=auto;html=1;" parent="1" source="zCoN6z9puCoiUgl8uZSw-1" target="zCoN6z9puCoiUgl8uZSw-2" edge="1">
          <mxGeometry relative="1" as="geometry" />
        </mxCell>
        <mxCell id="zCoN6z9puCoiUgl8uZSw-2" value="" style="sketch=0;points=[[0,0,0],[0.25,0,0],[0.5,0,0],[0.75,0,0],[1,0,0],[0,1,0],[0.25,1,0],[0.5,1,0],[0.75,1,0],[1,1,0],[0,0.25,0],[0,0.5,0],[0,0.75,0],[1,0.25,0],[1,0.5,0],[1,0.75,0]];outlineConnect=0;fontColor=#232F3E;fillColor=#8C4FFF;strokeColor=#ffffff;dashed=0;verticalLabelPosition=bottom;verticalAlign=top;align=center;html=1;fontSize=12;fontStyle=0;aspect=fixed;shape=mxgraph.aws4.resourceIcon;resIcon=mxgraph.aws4.cloudfront;" parent="1" vertex="1">
          <mxGeometry x="600" y="12.89" width="40" height="40" as="geometry" />
        </mxCell>
        <mxCell id="zCoN6z9puCoiUgl8uZSw-3" value="" style="edgeStyle=orthogonalEdgeStyle;rounded=0;orthogonalLoop=1;jettySize=auto;html=1;" parent="1" source="bOCi2ubxmbnxknkTj1Zq-234" target="zCoN6z9puCoiUgl8uZSw-1" edge="1">
          <mxGeometry relative="1" as="geometry">
            <Array as="points" />
            <mxPoint x="510" y="33" as="sourcePoint" />
            <mxPoint x="660" y="50" as="targetPoint" />
          </mxGeometry>
        </mxCell>
        <mxCell id="zCoN6z9puCoiUgl8uZSw-1" value="" style="sketch=0;points=[[0,0,0],[0.25,0,0],[0.5,0,0],[0.75,0,0],[1,0,0],[0,1,0],[0.25,1,0],[0.5,1,0],[0.75,1,0],[1,1,0],[0,0.25,0],[0,0.5,0],[0,0.75,0],[1,0.25,0],[1,0.5,0],[1,0.75,0]];outlineConnect=0;fontColor=#232F3E;fillColor=#8C4FFF;strokeColor=#ffffff;dashed=0;verticalLabelPosition=bottom;verticalAlign=top;align=center;html=1;fontSize=12;fontStyle=0;aspect=fixed;shape=mxgraph.aws4.resourceIcon;resIcon=mxgraph.aws4.route_53;" parent="1" vertex="1">
          <mxGeometry x="535.52" y="12.889999999999986" width="40" height="40" as="geometry" />
        </mxCell>
        <mxCell id="bOCi2ubxmbnxknkTj1Zq-258" value="Route53" style="text;strokeColor=none;align=center;fillColor=none;html=1;verticalAlign=middle;whiteSpace=wrap;rounded=0;" parent="1" vertex="1">
          <mxGeometry x="517" y="50" width="80" height="30" as="geometry" />
        </mxCell>
        <mxCell id="zCoN6z9puCoiUgl8uZSw-5" value="CloudFront" style="text;strokeColor=none;align=center;fillColor=none;html=1;verticalAlign=middle;whiteSpace=wrap;rounded=0;" parent="1" vertex="1">
          <mxGeometry x="580" y="50" width="80" height="30" as="geometry" />
        </mxCell>
        <mxCell id="zCoN6z9puCoiUgl8uZSw-23" value="" style="html=1;verticalLabelPosition=bottom;align=center;labelBackgroundColor=#ffffff;verticalAlign=top;strokeWidth=2;strokeColor=#0080F0;shadow=0;dashed=0;shape=mxgraph.ios7.icons.smartphone;" parent="1" vertex="1">
          <mxGeometry x="440" y="20" width="18" height="30" as="geometry" />
        </mxCell>
        <mxCell id="zCoN6z9puCoiUgl8uZSw-24" value="" style="html=1;verticalLabelPosition=bottom;align=center;labelBackgroundColor=#ffffff;verticalAlign=top;strokeWidth=2;strokeColor=#0080F0;shadow=0;dashed=0;shape=mxgraph.ios7.icons.smartphone;" parent="1" vertex="1">
          <mxGeometry x="350" y="12.89" width="18" height="30" as="geometry" />
        </mxCell>
        <mxCell id="zCoN6z9puCoiUgl8uZSw-25" value="Endpoint Devices" style="text;strokeColor=none;align=center;fillColor=none;html=1;verticalAlign=middle;whiteSpace=wrap;rounded=0;" parent="1" vertex="1">
          <mxGeometry x="430" y="60" width="103" height="27.11" as="geometry" />
        </mxCell>
        <mxCell id="zCoN6z9puCoiUgl8uZSw-26" value="Endpoint Devices" style="text;strokeColor=none;align=center;fillColor=none;html=1;verticalAlign=middle;whiteSpace=wrap;rounded=0;" parent="1" vertex="1">
          <mxGeometry x="307.5" y="52.89" width="103" height="30" as="geometry" />
        </mxCell>
      </root>
    </mxGraphModel>
  </diagram>
</mxfile>
